# xmcd
#
# Track frame offsets:
#	150
#	14847
#	28240
#	43700
#	58305
#	72352
#	87260
#	101080
#	113717
#	126965
#
# Disc length: 1897 seconds
#
# Revision: 3
# Processed by: cddbd v1.5.2PL0 Copyright (c) Steve Scherf et al.
# Submitted via: audiograbber 1.83.01
#
DISCID=9307670a
DTITLE=Paulette Carlson - Love Goes On
DYEAR=1991
DGENRE=Country
TTITLE0=I'll Start With You
TTITLE1=Not With My Heart You Don't
TTITLE2=Someone I Used To Know
TTITLE3=Love Is Never Wrong
TTITLE4=Why Should I
TTITLE5=The Chain Just Broke
TTITLE6=It's Too Bad
TTITLE7=Where Ya Comin' From
TTITLE8=Falling In Love For A Lifetime
TTITLE9=Love Goes On
EXTD=
EXTT0=
EXTT1=
EXTT2=
EXTT3=
EXTT4=
EXTT5=
EXTT6=
EXTT7=
EXTT8=
EXTT9=
PLAYORDER=
